<mxfile host="app.diagrams.net" modified="2024-04-29T06:21:53.849Z" agent="Mozilla/5.0 (Windows NT 10.0; Win64; x64) AppleWebKit/537.36 (KHTML, like Gecko) Chrome/124.0.0.0 Safari/537.36" etag="ImFi1ZkXoQzAE4XQvpgJ" version="24.3.0" type="device">
  <diagram name="Страница — 1" id="fY1QoJU-OQZtq0JVKS2O">
    <mxGraphModel dx="1977" dy="1213" grid="1" gridSize="10" guides="1" tooltips="1" connect="1" arrows="1" fold="1" page="1" pageScale="1" pageWidth="827" pageHeight="1169" math="0" shadow="0">
      <root>
        <mxCell id="0" />
        <mxCell id="1" parent="0" />
        <mxCell id="Y9y1II7sfUISDOUBbBMM-1" value="Начало" style="rounded=1;whiteSpace=wrap;html=1;arcSize=50;" vertex="1" parent="1">
          <mxGeometry x="339" y="50" width="110" height="40" as="geometry" />
        </mxCell>
        <mxCell id="Y9y1II7sfUISDOUBbBMM-2" value="Ввод k, x" style="shape=parallelogram;perimeter=parallelogramPerimeter;whiteSpace=wrap;html=1;fixedSize=1;" vertex="1" parent="1">
          <mxGeometry x="334" y="120" width="120" height="40" as="geometry" />
        </mxCell>
        <mxCell id="Y9y1II7sfUISDOUBbBMM-5" value="i = 1&lt;br&gt;res = 0" style="rounded=0;whiteSpace=wrap;html=1;" vertex="1" parent="1">
          <mxGeometry x="334" y="190" width="120" height="40" as="geometry" />
        </mxCell>
        <mxCell id="Y9y1II7sfUISDOUBbBMM-9" value="" style="endArrow=classic;html=1;rounded=0;exitX=0;exitY=0.5;exitDx=0;exitDy=0;entryX=0;entryY=0.5;entryDx=0;entryDy=0;" edge="1" parent="1" source="Y9y1II7sfUISDOUBbBMM-18" target="Y9y1II7sfUISDOUBbBMM-17">
          <mxGeometry width="50" height="50" relative="1" as="geometry">
            <mxPoint x="351.5" y="430" as="sourcePoint" />
            <mxPoint x="339" y="280" as="targetPoint" />
            <Array as="points">
              <mxPoint x="240" y="545" />
              <mxPoint x="240" y="425" />
              <mxPoint x="240" y="280" />
            </Array>
          </mxGeometry>
        </mxCell>
        <mxCell id="Y9y1II7sfUISDOUBbBMM-10" value="" style="endArrow=classic;html=1;rounded=0;exitX=0.5;exitY=1;exitDx=0;exitDy=0;entryX=0.5;entryY=0;entryDx=0;entryDy=0;" edge="1" parent="1" source="Y9y1II7sfUISDOUBbBMM-1" target="Y9y1II7sfUISDOUBbBMM-2">
          <mxGeometry width="50" height="50" relative="1" as="geometry">
            <mxPoint x="114" y="190" as="sourcePoint" />
            <mxPoint x="164" y="140" as="targetPoint" />
          </mxGeometry>
        </mxCell>
        <mxCell id="Y9y1II7sfUISDOUBbBMM-11" value="" style="endArrow=classic;html=1;rounded=0;exitX=0.5;exitY=1;exitDx=0;exitDy=0;entryX=0.5;entryY=0;entryDx=0;entryDy=0;" edge="1" parent="1" source="Y9y1II7sfUISDOUBbBMM-2" target="Y9y1II7sfUISDOUBbBMM-5">
          <mxGeometry width="50" height="50" relative="1" as="geometry">
            <mxPoint x="134" y="250" as="sourcePoint" />
            <mxPoint x="184" y="200" as="targetPoint" />
          </mxGeometry>
        </mxCell>
        <mxCell id="Y9y1II7sfUISDOUBbBMM-12" value="Вывод res" style="shape=parallelogram;perimeter=parallelogramPerimeter;whiteSpace=wrap;html=1;fixedSize=1;" vertex="1" parent="1">
          <mxGeometry x="334" y="600" width="120" height="40" as="geometry" />
        </mxCell>
        <mxCell id="Y9y1II7sfUISDOUBbBMM-13" value="" style="endArrow=classic;html=1;rounded=0;exitX=0.5;exitY=1;exitDx=0;exitDy=0;" edge="1" parent="1" source="Y9y1II7sfUISDOUBbBMM-5">
          <mxGeometry width="50" height="50" relative="1" as="geometry">
            <mxPoint x="180" y="380" as="sourcePoint" />
            <mxPoint x="394" y="260" as="targetPoint" />
          </mxGeometry>
        </mxCell>
        <mxCell id="Y9y1II7sfUISDOUBbBMM-14" value="" style="endArrow=classic;html=1;rounded=0;exitX=1;exitY=0.5;exitDx=0;exitDy=0;" edge="1" parent="1" source="Y9y1II7sfUISDOUBbBMM-17" target="Y9y1II7sfUISDOUBbBMM-12">
          <mxGeometry width="50" height="50" relative="1" as="geometry">
            <mxPoint x="449" y="280" as="sourcePoint" />
            <mxPoint x="330" y="490" as="targetPoint" />
            <Array as="points">
              <mxPoint x="550" y="280" />
              <mxPoint x="550" y="580" />
              <mxPoint x="394" y="580" />
            </Array>
          </mxGeometry>
        </mxCell>
        <mxCell id="Y9y1II7sfUISDOUBbBMM-15" value="" style="endArrow=classic;html=1;rounded=0;exitX=0.5;exitY=1;exitDx=0;exitDy=0;" edge="1" parent="1" source="Y9y1II7sfUISDOUBbBMM-12" target="Y9y1II7sfUISDOUBbBMM-16">
          <mxGeometry width="50" height="50" relative="1" as="geometry">
            <mxPoint x="394" y="640" as="sourcePoint" />
            <mxPoint x="399" y="795" as="targetPoint" />
          </mxGeometry>
        </mxCell>
        <mxCell id="Y9y1II7sfUISDOUBbBMM-16" value="Конец" style="rounded=1;whiteSpace=wrap;html=1;arcSize=50;" vertex="1" parent="1">
          <mxGeometry x="334" y="665" width="120" height="40" as="geometry" />
        </mxCell>
        <mxCell id="Y9y1II7sfUISDOUBbBMM-17" value="i &amp;lt;= k" style="shape=hexagon;perimeter=hexagonPerimeter2;whiteSpace=wrap;html=1;fixedSize=1;" vertex="1" parent="1">
          <mxGeometry x="354" y="260" width="80" height="40" as="geometry" />
        </mxCell>
        <mxCell id="Y9y1II7sfUISDOUBbBMM-18" value="i" style="ellipse;whiteSpace=wrap;html=1;aspect=fixed;" vertex="1" parent="1">
          <mxGeometry x="379" y="530" width="30" height="30" as="geometry" />
        </mxCell>
        <mxCell id="Y9y1II7sfUISDOUBbBMM-21" value="fact = 1" style="rounded=0;whiteSpace=wrap;html=1;" vertex="1" parent="1">
          <mxGeometry x="361.88" y="320" width="64.25" height="30" as="geometry" />
        </mxCell>
        <mxCell id="Y9y1II7sfUISDOUBbBMM-22" value="" style="endArrow=classic;html=1;rounded=0;exitX=0.5;exitY=1;exitDx=0;exitDy=0;" edge="1" parent="1" source="Y9y1II7sfUISDOUBbBMM-17" target="Y9y1II7sfUISDOUBbBMM-21">
          <mxGeometry width="50" height="50" relative="1" as="geometry">
            <mxPoint x="330" y="430" as="sourcePoint" />
            <mxPoint x="380" y="380" as="targetPoint" />
          </mxGeometry>
        </mxCell>
        <mxCell id="Y9y1II7sfUISDOUBbBMM-23" value="j &amp;lt;= (2 * i + 1)" style="shape=hexagon;perimeter=hexagonPerimeter2;whiteSpace=wrap;html=1;fixedSize=1;" vertex="1" parent="1">
          <mxGeometry x="336" y="370" width="116" height="40" as="geometry" />
        </mxCell>
        <mxCell id="Y9y1II7sfUISDOUBbBMM-24" value="" style="endArrow=classic;html=1;rounded=0;exitX=0.5;exitY=1;exitDx=0;exitDy=0;" edge="1" parent="1" source="Y9y1II7sfUISDOUBbBMM-21">
          <mxGeometry width="50" height="50" relative="1" as="geometry">
            <mxPoint x="340" y="480" as="sourcePoint" />
            <mxPoint x="394" y="370" as="targetPoint" />
          </mxGeometry>
        </mxCell>
        <mxCell id="Y9y1II7sfUISDOUBbBMM-25" value="res = res + 8 * i * i * sqrt(x) * x^i / fact" style="rounded=0;whiteSpace=wrap;html=1;" vertex="1" parent="1">
          <mxGeometry x="288.5" y="430" width="211" height="30" as="geometry" />
        </mxCell>
        <mxCell id="Y9y1II7sfUISDOUBbBMM-26" value="" style="endArrow=classic;html=1;rounded=0;exitX=0.5;exitY=1;exitDx=0;exitDy=0;entryX=0.5;entryY=0;entryDx=0;entryDy=0;" edge="1" parent="1" source="Y9y1II7sfUISDOUBbBMM-23" target="Y9y1II7sfUISDOUBbBMM-25">
          <mxGeometry width="50" height="50" relative="1" as="geometry">
            <mxPoint x="360" y="520" as="sourcePoint" />
            <mxPoint x="410" y="470" as="targetPoint" />
          </mxGeometry>
        </mxCell>
        <mxCell id="Y9y1II7sfUISDOUBbBMM-27" value="" style="endArrow=classic;html=1;rounded=0;exitX=0.5;exitY=1;exitDx=0;exitDy=0;entryX=0.5;entryY=0;entryDx=0;entryDy=0;" edge="1" parent="1" source="Y9y1II7sfUISDOUBbBMM-25" target="Y9y1II7sfUISDOUBbBMM-28">
          <mxGeometry width="50" height="50" relative="1" as="geometry">
            <mxPoint x="340" y="550" as="sourcePoint" />
            <mxPoint x="390" y="500" as="targetPoint" />
          </mxGeometry>
        </mxCell>
        <mxCell id="Y9y1II7sfUISDOUBbBMM-28" value="j" style="ellipse;whiteSpace=wrap;html=1;aspect=fixed;" vertex="1" parent="1">
          <mxGeometry x="379" y="490" width="30" height="30" as="geometry" />
        </mxCell>
        <mxCell id="Y9y1II7sfUISDOUBbBMM-29" value="" style="endArrow=classic;html=1;rounded=0;exitX=0;exitY=0.5;exitDx=0;exitDy=0;entryX=0;entryY=0.5;entryDx=0;entryDy=0;" edge="1" parent="1" source="Y9y1II7sfUISDOUBbBMM-28" target="Y9y1II7sfUISDOUBbBMM-23">
          <mxGeometry width="50" height="50" relative="1" as="geometry">
            <mxPoint x="280" y="540" as="sourcePoint" />
            <mxPoint x="270" y="350" as="targetPoint" />
            <Array as="points">
              <mxPoint x="260" y="505" />
              <mxPoint x="260" y="390" />
            </Array>
          </mxGeometry>
        </mxCell>
        <mxCell id="Y9y1II7sfUISDOUBbBMM-30" value="" style="endArrow=classic;html=1;rounded=0;exitX=1;exitY=0.5;exitDx=0;exitDy=0;entryX=1;entryY=0.5;entryDx=0;entryDy=0;" edge="1" parent="1" source="Y9y1II7sfUISDOUBbBMM-23" target="Y9y1II7sfUISDOUBbBMM-18">
          <mxGeometry width="50" height="50" relative="1" as="geometry">
            <mxPoint x="610" y="520" as="sourcePoint" />
            <mxPoint x="660" y="470" as="targetPoint" />
            <Array as="points">
              <mxPoint x="530" y="390" />
              <mxPoint x="530" y="545" />
            </Array>
          </mxGeometry>
        </mxCell>
      </root>
    </mxGraphModel>
  </diagram>
</mxfile>
